<?xml version="1.0" encoding="UTF-8" standalone="no"?>
<!-- Created with Inkscape (http://www.inkscape.org/) -->

<svg
   xmlns:dc="http://purl.org/dc/elements/1.1/"
   xmlns:cc="http://creativecommons.org/ns#"
   xmlns:rdf="http://www.w3.org/1999/02/22-rdf-syntax-ns#"
   xmlns:svg="http://www.w3.org/2000/svg"
   xmlns="http://www.w3.org/2000/svg"
   xmlns:sodipodi="http://sodipodi.sourceforge.net/DTD/sodipodi-0.dtd"
   xmlns:inkscape="http://www.inkscape.org/namespaces/inkscape"
   height="360pt"
   id="svg923"
   inkscape:version="0.48.2 r9819"
   sodipodi:docname="man_front.svg"
   sodipodi:version="0.32"
   width="280pt"
   version="1.1">
  <metadata
     id="metadata2986">
    <rdf:RDF>
      <cc:Work
         rdf:about="">
        <dc:title></dc:title>
        <dc:description />
        <dc:subject>
          <rdf:Bag>
            <rdf:li />
            <rdf:li>people</rdf:li>
            <rdf:li>0x87fadcc</rdf:li>
          </rdf:Bag>
        </dc:subject>
        <dc:publisher>
          <cc:Agent
             rdf:about="http://www.openclipart.org">
            <dc:title>Nicu Buculei</dc:title>
          </cc:Agent>
        </dc:publisher>
        <dc:creator>
          <cc:Agent>
            <dc:title>Nicu Buculei</dc:title>
          </cc:Agent>
        </dc:creator>
        <dc:rights>
          <cc:Agent>
            <dc:title>Nicu Buculei</dc:title>
          </cc:Agent>
        </dc:rights>
        <dc:date />
        <dc:format>image/svg+xml</dc:format>
        <dc:type
           rdf:resource="http://purl.org/dc/dcmitype/StillImage" />
        <cc:license
           rdf:resource="http://web.resource.org/cc/PublicDomain" />
        <dc:language>en</dc:language>
      </cc:Work>
      <cc:License
         rdf:about="http://web.resource.org/cc/PublicDomain">
        <cc:permits
           rdf:resource="http://web.resource.org/cc/Reproduction" />
        <cc:permits
           rdf:resource="http://web.resource.org/cc/Distribution" />
        <cc:permits
           rdf:resource="http://web.resource.org/cc/DerivativeWorks" />
      </cc:License>
    </rdf:RDF>
  </metadata>
  <defs
     id="defs925">
    <inkscape:perspective
       sodipodi:type="inkscape:persp3d"
       inkscape:vp_x="0 : 225 : 1"
       inkscape:vp_y="0 : 1000 : 0"
       inkscape:vp_z="175 : 225 : 1"
       inkscape:persp3d-origin="87.5 : 150 : 1"
       id="perspective3088" />
  </defs>
  <sodipodi:namedview
     bordercolor="#666666"
     borderopacity="1.0"
     id="base"
     inkscape:cx="237.96664"
     inkscape:cy="256.13953"
     inkscape:pageopacity="0.0"
     inkscape:pageshadow="2"
     inkscape:window-height="852"
     inkscape:window-width="1440"
     inkscape:window-x="0"
     inkscape:window-y="0"
     inkscape:zoom="0.99999999"
     pagecolor="#ffffff"
     showgrid="false"
     inkscape:window-maximized="1"
     inkscape:current-layer="svg923" />
  <path
     style="fill:#f0f0f0;fill-opacity:1;fill-rule:evenodd;stroke:#000000;stroke-width:1pt;stroke-linecap:butt;stroke-linejoin:round;stroke-opacity:1"
     d="m 52.724264,210.58849 c 1.603758,38.91537 10.902983,82.97832 11.276505,93.31772 -6.449898,30.65074 9.279666,90.59344 9.678366,96.15236 -0.42813,5.1455 -3.490845,8.9397 -1.545565,12.12521 -2.602192,11.04023 -4.496151,15.02754 -2.336801,21.50559 2.159352,6.47805 17.766056,8.09399 20.766936,4.09638 0.933842,-6.06464 -0.607586,-21.37349 -2.766936,-24.25263 1.147907,-2.46573 2.541259,-11.10957 0.197279,-18.52147 -2.75739,-9.47893 5.824499,-63.06797 -0.775298,-78.04294 0.841528,-3.39956 2.172791,-14.49133 2.1875,-19.4375 -0.804533,-2.97571 0.138572,-57.59262 1.659052,-86.46131 -14.927292,-0.0108 -35.323599,-1.09742 -38.341038,-0.48141 z"
     id="path3045"
     selectable="true"
     disabled="false"
     active="false"
     depicts="Arto Inferiore Destro Anteriore"
     inkscape:connector-curvature="0"
     sodipodi:nodetypes="ccccsccccccc" />
  <path
     style="fill:#f0f0f0;fill-opacity:1;fill-rule:evenodd;stroke:#000000;stroke-width:1pt;stroke-linecap:butt;stroke-linejoin:round;stroke-opacity:1"
     d="m 131.23956,210.90089 c 0.73234,-20.77228 -0.42936,-43.75136 -7.83303,-57.46122 l -64.265126,-0.48992 c -7.062748,15.39641 -7.39572,35.90759 -6.490363,57.87618 z"
     id="path3066"
     selectable="true"
     disabled="false"
     active="false"
     depicts="Bacino"
     inkscape:connector-curvature="0"
     sodipodi:nodetypes="ccccc" />
  <path
     style="fill:#f0f0f0;fill-opacity:1;fill-rule:evenodd;stroke:#000000;stroke-width:1pt;stroke-linecap:butt;stroke-linejoin:round;stroke-opacity:1"
     d="m 122.84587,153.46632 c -1.39463,-12.099 -3.9845,-26.77166 -1.39701,-44.27122 l -62.834236,-0.42278 c 1.482066,14.61684 3.848015,29.41046 0.733887,44.0273 z"
     id="path3072"
     selectable="true"
     disabled="false"
     active="false"
     depicts="Addome"
     inkscape:connector-curvature="0"
     sodipodi:nodetypes="ccccc" />
  <path
     style="fill:#f0f0f0;fill-opacity:1;fill-rule:evenodd;stroke:#000000;stroke-width:1pt;stroke-linecap:butt;stroke-linejoin:round;stroke-opacity:1"
     d="m 121.9363,109.12708 1.51106,-39.166589 c -7.45823,-1.047155 -6.05707,1.092038 -18.74546,-6.385428 L 80.11886,63.279499 c -7.474768,6.998486 -25.31777,6.761926 -25.31777,6.761926 l 3.959981,38.641435 z"
     id="path3114"
     selectable="true"
     disabled="false"
     active="false"
     depicts="Torace"
     inkscape:connector-curvature="0"
     sodipodi:nodetypes="ccccccc" />
  <path
     style="fill:#f0f0f0;fill-opacity:1;fill-rule:evenodd;stroke:#000000;stroke-width:1pt;stroke-linecap:butt;stroke-linejoin:round;stroke-opacity:1"
     d="M 81.192059,50.644607 C 74.713999,41.287423 71.080699,6.263076 94.34375,6.25 c 18.02198,0.164695 16.66556,34.799066 10.1875,44.15625 z"
     id="path3094"
     selectable="true"
     disabled="false"
     active="false"
     depicts="Volto"
     inkscape:connector-curvature="0"
     sodipodi:nodetypes="cccc" />
  <path
     style="fill:#f0f0f0;fill-opacity:1;fill-rule:evenodd;stroke:#000000;stroke-width:1pt;stroke-linecap:butt;stroke-linejoin:round;stroke-opacity:1"
     d="M 81.515283,50.428617 C 84.39441,56.186882 80.99766,57.362222 80.27787,63.120489 L 105.25,63.5625 c -0.71979,-5.758267 -3.7961,-7.363973 -0.91697,-13.12224 z"
     id="path3098"
     selectable="true"
     disabled="false"
     active="false"
     depicts="Collo Anteriore"
     inkscape:connector-curvature="0"
     sodipodi:nodetypes="ccccc" />
  <path
     style="fill:#f0f0f0;fill-opacity:1;fill-rule:evenodd;stroke:#000000;stroke-width:1pt;stroke-linecap:butt;stroke-linejoin:round;stroke-opacity:1"
     d="m 122.41853,96.475462 c -0.71979,6.478048 6.61628,48.556198 11.30022,60.899538 -3.17079,15.2372 4.12977,55.97973 1.25063,60.29844 -1.22974,5.1434 -3.79306,15.5525 -4.32609,22.07046 3.59891,-2.15935 3.04293,-4.59152 5.23171,-3.1814 2.60219,5.1308 -5.80899,10.98986 -5.83842,15.53735 5.75827,0 16.48721,-7.21886 12.33842,-31.3811 -0.0147,-9.69299 15.98062,-62.04759 8.29581,-75.01841 2.65036,-8.42334 -3.76581,-60.692 -8.81902,-71.07534 -1.90649,-3.124638 -10.82121,-3.474587 -18.27943,-4.521742 z"
     id="path943"
     selectable="true"
     disabled="false"
     active="false"
     depicts="Arto Superiore Sinistro Anteriore"
     inkscape:connector-curvature="0"
     sodipodi:nodetypes="ccccccccccc" />
  <path
     d="M 91.78125,3.6875 C 84.341293,4.0186157 76.894531,9.0039062 73.75,20.625 c 0.477912,-0.238956 0.894175,0.121071 1.540071,-0.06011 -0.656965,2.689737 -0.276464,5.571321 -0.276463,5.571321 0,0 0.679087,11.345871 1.486392,11.270035 -0.291789,-0.729473 0.45376,-15.571856 0.977571,-17.341356 9.24792,-2.976565 24.175949,-3.358471 29.959929,0.591356 1.3326,2.404348 0.82611,17.094669 0.82611,17.544107 0.50766,-0.259093 1.54958,-10.133342 1.93032,-10.54411 0,-0.790013 0.18582,-3.646456 -0.46397,-6.321321 0.44184,0.08486 1.38653,0.509687 1.6875,0.584929 C 111.0659,11.197202 101.34691,3.2617798 91.78125,3.6875 z"
     id="path910"
     selectable="true"
     disabled="false"
     active="false"
     depicts="Cuoio Capelluto Anteriore"
     sodipodi:nodetypes="cccccccccccc"
     style="fill:#f0f0f0;fill-opacity:1;fill-rule:evenodd;stroke:#000000;stroke-width:1pt;stroke-linecap:butt;stroke-linejoin:miter;stroke-opacity:1"
     inkscape:connector-curvature="0" />
  <path
     style="fill:#f0f0f0;fill-opacity:1;fill-rule:evenodd;stroke:#000000;stroke-width:1pt;stroke-linecap:butt;stroke-linejoin:round;stroke-opacity:1"
     d="m 131.32125,211.02836 c -1.60376,38.91537 -7.47621,82.44799 -7.84973,92.78739 6.4499,30.65074 -9.27967,90.59344 -9.67837,96.15236 0.42813,5.1455 3.49085,8.9397 1.54557,12.12521 2.60219,11.04023 4.49615,15.02754 2.3368,21.50559 -2.15935,6.47805 -17.76606,8.09399 -20.766938,4.09638 -0.93384,-6.06464 0.60759,-21.37349 2.766938,-24.25263 -1.147908,-2.46573 -2.541258,-11.10957 -0.19728,-18.52147 2.75739,-9.47893 -5.824498,-63.06797 0.7753,-78.04294 -0.84153,-3.39956 -2.172788,-14.49133 -2.187498,-19.4375 0.80453,-2.97571 -2.315353,-57.59262 -3.835833,-86.46131 z"
     id="path3045-0"
     selectable="true"
     disabled="false"
     active="false"
     depicts="Arto Inferiore Sinistro Anteriore"
     inkscape:connector-curvature="0"
     sodipodi:nodetypes="ccccsccccccc" />
  <path
     inkscape:connector-curvature="0"
     style="fill:#f0f0f0;fill-opacity:1;fill-rule:evenodd;stroke:#000000;stroke-width:1pt;stroke-linecap:butt;stroke-linejoin:round;stroke-opacity:1"
     d="m 57.299164,96.291803 c 0.71979,6.478047 -4.67173,49.440077 -9.35567,61.783417 3.17079,15.23721 -1.74804,57.89395 1.1311,62.21265 1.22974,5.1434 1.41133,13.63829 1.94436,20.15625 -3.59891,-2.15935 -3.04293,-4.59152 -5.23171,-3.1814 -2.60219,5.1308 5.80899,10.98986 5.83842,15.53735 -5.75827,0 -16.48721,-7.21886 -12.33842,-31.3811 0.0147,-9.69299 -15.98062,-62.04759 -8.29581,-75.01841 -2.65036,-8.42334 3.76581,-60.692 8.81902,-71.07534 1.90649,-3.124638 7.101544,-4.431693 14.559764,-5.478848 z"
     id="path943-1"
     selectable="true"
     disabled="false"
     active="false"
     depicts="Arto Superiore Destro Anteriore"
     sodipodi:nodetypes="ccccccccccc" />
  <path
     style="fill:#f0f0f0;fill-opacity:1;fill-rule:evenodd;stroke:#000000;stroke-width:1.01938677pt;stroke-linecap:butt;stroke-linejoin:miter;stroke-opacity:1"
     d="m 214.52088,73.869063 c -4.61469,0.59483 -10.05197,1.661662 -12.2232,3.698571 -11.41792,13.823086 -1.12773,82.497596 0.70581,87.195716 -6.82573,18.83827 3.2328,52.69113 3.50904,63.38811 2.33797,7.26906 -0.90177,19.80649 8.84375,29.55081 -0.56313,-7.82377 -0.1998,-17.37339 -0.91774,-28.56404 0.80503,-10.66311 -0.051,-28.39953 2.30162,-41.01392 -0.94613,-5.63553 2.20727,-17.73498 0.0535,-22.95727 4.44374,-8.22173 1.72601,-43.10417 -1.5548,-55.30874 z"
     id="path3003"
     selectable="true"
     disabled="false"
     active="false"
     depicts="Arto Superiore Sinistro Posteriore"
     inkscape:connector-curvature="0"
     sodipodi:nodetypes="cccccccccc" />
  <path
     style="fill:#f0f0f0;fill-opacity:1;fill-rule:evenodd;stroke:#000000;stroke-width:1.01938677pt;stroke-linecap:butt;stroke-linejoin:miter;stroke-opacity:1"
     d="m 290.12999,110.14878 c -1.95498,11.74533 -1.68619,47.95158 2.75754,56.1733 -2.15381,5.22229 -1.68653,15.58551 -2.63266,21.22106 1.84499,14.47013 1.0234,29.82325 1.82844,40.48639 -0.71794,11.19063 -0.25765,21.16706 -0.82078,28.9908 9.74552,-9.74432 6.47453,-22.24929 8.8125,-29.51834 0.27624,-10.69698 12.57573,-44.5823 5.75,-63.42058 1.83354,-4.69813 6.85558,-72.597904 -1.46875,-85.502507 -2.52977,-3.591622 -8.34643,-4.899672 -13.57208,-5.604039 z"
     id="path3013"
     selectable="true"
     disabled="false"
     active="false"
     depicts="Arto Superiore Destro Posteriore"
     inkscape:connector-curvature="0"
     sodipodi:nodetypes="cccccccccc" />
  <path
     style="fill:#f0f0f0;fill-opacity:1;fill-rule:evenodd;stroke:#000000;stroke-width:1.01938677pt;stroke-linecap:butt;stroke-linejoin:miter;stroke-opacity:1"
     d="m 215.17892,221.93308 c -0.66938,32.45763 1.93471,70.58035 7.61486,99.61193 -7.43832,48.10409 5.14216,71.66673 5.9375,94.7899 5.74349,2.98418 -4.99589,19.01474 -2.75,21.23761 4.30762,5.22231 16.60667,3.80522 19.1875,-0.22731 1.3438,-2.74705 -2.0877,-9.06517 -1.15625,-13.54141 -0.30559,-4.47627 0.0625,-13.38328 0.0625,-17.11349 0,-3.73024 6.4667,-60.07436 4.71875,-78.5532 1.67874,-5.09609 0.8585,-13.44915 0.75,-22.50408 1.17862,-6.02884 2.36515,-63.22354 3.03337,-81.04691 z"
     id="path3030"
     selectable="true"
     disabled="false"
     active="false"
     depicts="Arto Inferiore Sinistro Posteriore"
     inkscape:connector-curvature="0"
     sodipodi:nodetypes="ccccccscccc" />
  <path
     style="fill:#f0f0f0;fill-opacity:1;fill-rule:evenodd;stroke:#000000;stroke-width:1.01938677pt;stroke-linecap:butt;stroke-linejoin:miter;stroke-opacity:1"
     d="m 254.20297,224.91116 c 0.68602,16.77884 2.43237,66.79287 0.65331,72.73341 -2.13913,7.99986 -1.17936,23.6919 -1.53125,29.84307 -2.18989,11.59019 0.8125,71.60809 0.8125,75.33833 0,3.73021 -1.85066,14.91036 -2.15625,19.38662 0.93145,4.47626 -2.06254,12.19074 -0.71875,14.93778 2.58083,4.03253 16.19238,4.05327 20.5,-1.16904 2.24589,-2.22288 -7.43099,-17.70139 -1.6875,-20.68557 0.79534,-23.12317 13.15937,-49.92057 12.21875,-94.40023 6.75696,-28.47422 9.45327,-64.6107 9.01284,-97.07924 z"
     id="path3034"
     selectable="true"
     disabled="false"
     active="false"
     depicts="Arto Inferiore Destro Posteriore"
     inkscape:connector-curvature="0"
     sodipodi:nodetypes="cccsccccccc" />
  <path
     style="fill:#f0f0f0;fill-opacity:1;fill-rule:evenodd;stroke:#000000;stroke-width:1.01938677pt;stroke-linecap:butt;stroke-linejoin:miter;stroke-opacity:1"
     d="M 291.45737,223.97296 C 291.2694,210.11569 290.48262,196.898 289.1454,185.17635 l -71.46666,-0.39427 c -1.71195,10.60928 -2.51711,23.05615 -2.80133,36.83769 l 37.54899,2.96635 c 0.12347,-3.29344 1.39925,-5.09126 1.39863,-5.13754 -8.9e-4,0.0323 0.0883,2.0667 0.22719,5.46258 z"
     id="path3026"
     selectable="true"
     disabled="false"
     active="false"
     depicts="Glutei"
     inkscape:connector-curvature="0"
     sodipodi:nodetypes="cccccccc" />
  <path
     style="fill:#f0f0f0;fill-opacity:1;fill-rule:evenodd;stroke:#000000;stroke-width:1.01938677pt;stroke-linecap:butt;stroke-linejoin:miter;stroke-opacity:1"
     d="m 289.14539,185.17635 c -0.91701,-8.03828 -1.94846,-18.46658 -3.38286,-24.72625 l -62.20399,-0.30792 c -2.51387,4.98143 -4.45769,15.98353 -5.8798,24.79656 z"
     id="path3022"
     selectable="true"
     disabled="false"
     active="false"
     depicts="Lombare"
     inkscape:connector-curvature="0"
     sodipodi:nodetypes="ccccc" />
  <path
     style="fill:#f0f0f0;fill-opacity:1;fill-rule:evenodd;stroke:#000000;stroke-width:1.01938677pt;stroke-linecap:butt;stroke-linejoin:miter;stroke-opacity:1"
     d="m 285.76253,160.60675 c 0.64053,-10.1423 3.2873,-38.05124 4.21875,-50.30132 l 0.65625,-37.344427 c -8.56251,-1.154152 -17.42735,-0.672175 -22.84375,-5.975109 l -26.8125,0.162367 c -5.88489,5.761615 -16.74042,5.65052 -26.3125,6.884364 l 0.71875,36.305285 c 5.35087,12.70932 7.68124,39.97527 8.32177,50.11758 z"
     id="path2999"
     selectable="true"
     disabled="false"
     active="false"
     depicts="Schiena"
     inkscape:connector-curvature="0"
     sodipodi:nodetypes="ccccccccc" />
  <path
     style="fill:#f0f0f0;fill-opacity:1;fill-rule:evenodd;stroke:#000000;stroke-width:1.01938677pt;stroke-linecap:butt;stroke-linejoin:miter;stroke-opacity:1"
     d="M 267.79755,66.827766 C 266.49779,64.287337 264.5225,59.805122 265.119,56.407717 l -21.90331,0.16908 c 0.5965,3.397405 -0.77578,7.879319 -2.07554,10.419748 z"
     id="path2995"
     selectable="true"
     disabled="false"
     active="false"
     depicts="Collo Posteriore"
     inkscape:connector-curvature="0"
     sodipodi:nodetypes="ccccc" />
  <path
     style="fill:#f0f0f0;fill-opacity:1;fill-rule:evenodd;stroke:#000000;stroke-width:1.01938677pt;stroke-linecap:butt;stroke-linejoin:miter;stroke-opacity:1"
     d="m 265.26975,56.251065 c 8.01874,-7.253824 8.4669,-26.125139 4.64903,-37.618089 -4.38302,-8.317414 -8.81061,-9.5047042 -13.34375,-9.7189455 -1.49242,-0.070559 -12.21786,-0.1080196 -17.2546,9.4499205 -3.81787,11.49295 -4.12348,30.959033 3.89526,38.212846 z"
     id="path919"
     selectable="true"
     disabled="false"
     active="false"
     depicts="Nuca"
     inkscape:connector-curvature="0"
     sodipodi:nodetypes="ccsccc" />
  <path
     d="m 230.55347,218.38899 c 7.41061,7.46287 24.50723,11.166 23.77158,-1.95111 -4.09587,14.35959 19.25233,9.67643 22.57265,1.64565"
     id="path922"
     selectable="false"
     disabled="false"
     active="false"
     sodipodi:nodetypes="ccc"
     style="fill:none;stroke:#000000;stroke-width:1.01938677pt;stroke-linecap:butt;stroke-linejoin:miter;stroke-opacity:1"
     inkscape:connector-curvature="0" />
  <path
     inkscape:connector-curvature="0"
     style="fill:none;stroke:#000000;stroke-width:1.01938677pt;stroke-linecap:butt;stroke-linejoin:miter;stroke-opacity:1"
     sodipodi:nodetypes="ccc"
     id="path3036"
     selectable="false"
     disabled="false"
     active="false"
     d="m 230.55347,218.38899 c 7.41061,7.46287 24.50723,11.166 23.77158,-1.95111 -4.09587,14.35959 19.25233,9.67643 22.57265,1.64565" />
  <path
     d="m 235.41728,27.284143 c 0.76444,-29.1285399 38.06618,-26.49825551 38.26588,-2.36343 0.40394,1.912741 -0.25454,8.158195 -1.16612,9.371578 -2.47408,2.999422 -3.05378,-0.223063 -3.05378,2.776359 0,2.999431 -29.19808,2.055405 -29.61043,0.341443 -0.41234,-1.713952 -1.20614,-1.159348 -3.58038,-3.166371 -0.81173,-1.032811 -1.0503,-4.537539 -0.85517,-6.959579 z"
     id="path911"
     selectable="true"
     disabled="false"
     active="false"
     depicts="Cuoio Capelluto Posteriore"
     sodipodi:nodetypes="ccccccc"
     style="fill:#f0f0f0;fill-opacity:0.94086022;fill-rule:evenodd;stroke:#000000;stroke-width:1.01938677pt;stroke-linecap:butt;stroke-linejoin:miter;stroke-opacity:1"
     inkscape:connector-curvature="0" />
</svg>
